# xmcd
#
# Track frame offsets: 
#        150
#        42866
#        62363
#        81564
#        107671
#        124957
#        150247
#        183010
#        199879
#        249414
#        273149
#        292597
#        317645
#        334473
#
# Disc length: 4730 seconds
#
# Revision: 3
# Processed by: cddbd v1.5.2PL0 Copyright (c) Steve Scherf et al.
# Submitted via: ExactAudioCopy v1.0b3
#
DISCID=b912780e
DTITLE=Various Artist - Blues Paradise  Vol..12
DYEAR=2002
DGENRE=Blues
TTITLE0=Sunset Heights - Dreamin Girl
TTITLE1=Tinsley Ellis - To The Devil For A Dime
TTITLE2=Garry Brooker - Give Me Something To Remember You By
TTITLE3=Junior Wells - Oh Pretty Woman
TTITLE4=Robert Cray Band - Little Birds
TTITLE5=Luther Allison - All The King's Horses
TTITLE6=Albert King - I'll Play The Blues For You
TTITLE7=Joe Guitar Hughes - My Baby Told Me
TTITLE8=Albert Collins and The Icebreakers - Lights Are On But Nobody's 
TTITLE8=Home
TTITLE9=Smokin Joe Kubek - If I's The Last Thing I Do
TTITLE10=Pat Boyack and The Prowlers - Cleaning Out My Closet
TTITLE11=Smokey Wilson - House In Hollywood
TTITLE12=Tab Benoit - Cross The Line
TTITLE13=Midnight Crepers - Another You
EXTD=YEAR: 1997 ID3G:   0
EXTT0=
EXTT1=
EXTT2=
EXTT3=
EXTT4=
EXTT5=
EXTT6=
EXTT7=
EXTT8=
EXTT9=
EXTT10=
EXTT11=
EXTT12=
EXTT13=
PLAYORDER=
